<svg xmlns="http://www.w3.org/2000/svg" viewBox="0 0 316 604.5"><defs><style>.cls-1{fill:#ff9d17;}.cls-2{fill:none;stroke-width:20px;}.cls-2,.cls-4{stroke:#000;stroke-miterlimit:10;}.cls-3{fill:#fff;}.cls-4{stroke-width:10px;}.cls-5{fill:#ff94d3;}</style></defs><title>bob</title><g id="Layer_2" data-name="Layer 2"><g id="Layer_1-2" data-name="Layer 1"><ellipse cx="163" cy="583.5" rx="153" ry="21"/><g id="bob"><path class="cls-1" d="M254.42,51.45A139.85,139.85,0,0,1,296.23,155l-6,223.39a43.15,43.15,0,0,1-16.07,32.43v16.66a12.22,12.22,0,0,1-24.43,0v-6.92c-1.16.09-2.33.14-3.51.14h-.33a2.42,2.42,0,0,0,0-.38c0-3.12-2.22-5.65-5-5.65s-5,2.53-5,5.65a2.42,2.42,0,0,0,0,.38h-3.83V464a14.89,14.89,0,0,1-29.78,0V420.71H108.47v47.1a14.89,14.89,0,0,1-29.78,0v-47.1H74.93c0-.27,0-.53-.07-.8-.19-2.92-2.33-5.23-5-5.23a4.12,4.12,0,0,0-.86.09c-2.85.43-4.12,3.15-4.5,5.94H61.13v10.55a12.22,12.22,0,0,1-24.43,0V414.09A43.29,43.29,0,0,1,16.05,378.4L10.05,155C7.91,75.55,72.6,10,153.14,10A143.53,143.53,0,0,1,254.42,51.45Z"/><path class="cls-2" d="M254.42,51.45A143.53,143.53,0,0,0,153.14,10C72.6,10,7.91,75.55,10.05,155l6,223.39A43.29,43.29,0,0,0,36.7,414.09v17.17a12.22,12.22,0,0,0,24.43,0V420.71h3.42c.38-2.79,1.65-5.51,4.5-5.94a4.12,4.12,0,0,1,.86-.09c2.62,0,4.76,2.31,5,5.23,0,.27,0,.53.07.8h3.76v47.1a14.89,14.89,0,0,0,29.78,0v-47.1h93.92V464a14.89,14.89,0,0,0,29.78,0V420.71H236a2.42,2.42,0,0,1,0-.38c0-3.12,2.23-5.65,5-5.65s5,2.53,5,5.65a2.42,2.42,0,0,1,0,.38h.33c1.18,0,2.35,0,3.51-.14v6.92a12.22,12.22,0,0,0,24.43,0V410.83a43.15,43.15,0,0,0,16.07-32.43l6-223.39A139.85,139.85,0,0,0,254.42,51.45Z"/><ellipse cx="90.15" cy="174.28" rx="54.21" ry="53.5"/><ellipse class="cls-3" cx="72.59" cy="161.47" rx="19.85" ry="19.59"/><ellipse class="cls-3" cx="92.44" cy="196.14" rx="8.4" ry="8.29"/><ellipse cx="216.51" cy="174.66" rx="54.21" ry="53.5"/><ellipse class="cls-3" cx="198.95" cy="161.85" rx="19.85" ry="19.59"/><ellipse class="cls-3" cx="218.8" cy="196.51" rx="8.4" ry="8.29"/><path class="cls-4" d="M238.27,266.6a71.63,71.63,0,0,1-21.47,51.15A73.55,73.55,0,0,1,165,338.94H141.3a73.85,73.85,0,0,1-32.48-7.47A72.26,72.26,0,0,1,68,266.6Z"/><path class="cls-3" d="M227.58,272.25a27.68,27.68,0,0,1-27.86,27.5,28,28,0,0,1-22.53-11.31,28.08,28.08,0,0,1-46.27-1.79,27.94,27.94,0,0,1-51.84-14,26.54,26.54,0,0,1,.67-6H227A27.62,27.62,0,0,1,227.58,272.25Z"/><path class="cls-5" d="M198,331.19a73.69,73.69,0,0,1-33,7.75H141.3a73.85,73.85,0,0,1-32.48-7.47,55.4,55.4,0,0,1,89.19-.28Z"/></g></g></g></svg>